<svg xmlns="http://www.w3.org/2000/svg" width="40" height="28" viewBox="0 0 40 28">
  <rect width="40" height="28" fill="#012169"/>
  <polygon points="0,0 4,0 40,24 40,28 36,28 0,4" fill="#ffffff"/>
  <polygon points="40,0 36,0 0,24 0,28 4,28 40,4" fill="#ffffff"/>
  <polygon points="0,0 2,0 40,26 40,28 38,28 0,2" fill="#C8102E"/>
  <polygon points="40,0 38,0 0,26 0,28 2,28 40,2" fill="#C8102E"/>
  <rect x="0" y="11" width="40" height="6" fill="#ffffff"/>
  <rect x="17" y="0" width="6" height="28" fill="#ffffff"/>
  <rect x="0" y="12" width="40" height="4" fill="#C8102E"/>
  <rect x="18" y="0" width="4" height="28" fill="#C8102E"/>
</svg>
