<svg xmlns="http://www.w3.org/2000/svg" viewBox="0 0 60 40" width="60" height="40">
  <rect width="60" height="40" fill="#de2910"/>
  <path fill="#ffde00" d="M10 6l1.8 5.5H17l-4.2 3 1.6 5.5-4.4-3.2-4.4 3.2 1.6-5.5-4.2-3h5.2z"/>
  <path fill="#ffde00" d="M21 6.5l.8 2.3h2.4l-1.9 1.3.7 2.4-2-1.4-2 1.4.7-2.4-1.9-1.3h2.4z"/>
  <path fill="#ffde00" d="M24 12l.8 2.3h2.4l-1.9 1.3.7 2.4-2-1.4-2 1.4.7-2.4-1.9-1.3h2.4z"/>
  <path fill="#ffde00" d="M23.5 19l.8 2.3h2.4l-1.9 1.3.7 2.4-2-1.4-2 1.4.7-2.4-1.9-1.3h2.4z"/>
  <path fill="#ffde00" d="M20 24l.8 2.3h2.4l-1.9 1.3.7 2.4-2-1.4-2 1.4.7-2.4-1.9-1.3h2.4z"/>
</svg>
